<svg xmlns="http://www.w3.org/2000/svg" xmlns:xlink="http://www.w3.org/1999/xlink" width="236.746" height="47.928" viewBox="0 0 236.746 47.928">
  <defs>
    <clipPath id="clip-path">
      <rect id="Rectangle_13" data-name="Rectangle 13" width="236.746" height="47.928" fill="none"/>
    </clipPath>
  </defs>
  <g id="Group_21" data-name="Group 21" transform="translate(0 0)">
    <path id="Path_447" data-name="Path 447" d="M74.872,10.1h3.5L89.549,26.833,100.722,10.1h3.5V40.765h-3.462V15.924L89.593,32.353h-.175L78.246,15.968v24.8H74.872Z" transform="translate(-11.502 -1.551)" fill="#fff"/>
    <g id="Group_20" data-name="Group 20" transform="translate(0 0)">
      <g id="Group_19" data-name="Group 19" clip-path="url(#clip-path)">
        <path id="Path_448" data-name="Path 448" d="M129.575,27.929V10.1h3.462V27.709c0,6.616,3.548,10.339,9.375,10.339,5.652,0,9.244-3.418,9.244-10.12V10.1h3.462V27.665c0,8.938-5.127,13.581-12.794,13.581-7.579,0-12.749-4.643-12.749-13.318" transform="translate(-19.905 -1.551)" fill="#fff"/>
        <path id="Path_449" data-name="Path 449" d="M177.394,36.217l2.146-2.541c3.2,2.891,6.265,4.337,10.515,4.337,4.118,0,6.835-2.19,6.835-5.213v-.089c0-2.847-1.533-4.468-7.974-5.826-7.054-1.534-10.3-3.812-10.3-8.851v-.088c0-4.818,4.251-8.368,10.077-8.368a16.007,16.007,0,0,1,10.779,3.768l-2.016,2.674a13.466,13.466,0,0,0-8.85-3.331c-3.987,0-6.528,2.19-6.528,4.95v.087c0,2.892,1.577,4.513,8.324,5.959,6.834,1.49,9.989,3.986,9.989,8.674v.088c0,5.259-4.381,8.675-10.471,8.675a17.941,17.941,0,0,1-12.53-4.907" transform="translate(-27.251 -1.472)" fill="#fff"/>
        <rect id="Rectangle_12" data-name="Rectangle 12" width="3.461" height="30.669" transform="translate(189.259 8.545)" fill="#fff"/>
        <path id="Path_450" data-name="Path 450" d="M247.052,25.423v-.088c0-8.674,6.484-15.86,15.509-15.86a15.966,15.966,0,0,1,11.961,4.863l-2.367,2.541c-2.584-2.453-5.475-4.206-9.638-4.206-6.791,0-11.873,5.521-11.873,12.575v.086c0,7.1,5.127,12.662,11.873,12.662,4.207,0,6.967-1.621,9.9-4.424l2.278,2.234c-3.2,3.242-6.7,5.389-12.267,5.389-8.85,0-15.377-6.967-15.377-15.773" transform="translate(-37.951 -1.456)" fill="#fff"/>
        <path id="Path_451" data-name="Path 451" d="M40.951,26.6a1.384,1.384,0,0,0-1.4,1.433v.014a1.406,1.406,0,0,0,1.393,1.463,1.384,1.384,0,0,0,1.4-1.433v-.014A1.407,1.407,0,0,0,40.951,26.6" transform="translate(-6.076 -4.086)" fill="#fff"/>
        <path id="Path_452" data-name="Path 452" d="M23.964,0A23.964,23.964,0,1,0,47.928,23.964,23.964,23.964,0,0,0,23.964,0m4.475,32.324a8.488,8.488,0,0,1-7.248-3.84c-.585,2.31-2.631,3.89-5.659,3.89a7.867,7.867,0,0,1-6.322-2.8l2.455-2.339a4.944,4.944,0,0,0,3.914,1.946,2.033,2.033,0,0,0,2.293-1.969v-.047c0-1.32-1.181-2.061-3.173-2.061H13.216l-.556-2.27,3.868-3.892h-6.37V15.882H21.114V18.57l-4.1,3.914a6.187,6.187,0,0,1,2.89,1.19,8.385,8.385,0,0,1,8.684-8.119,8.558,8.558,0,0,1,6.7,3.093c-.123-.008-.245-.019-.372-.02A5.6,5.6,0,0,0,31.392,19.8a4.776,4.776,0,0,0-2.871-.955,4.85,4.85,0,0,0-4.9,5.02v.046a4.926,4.926,0,0,0,4.879,5.126,4.763,4.763,0,0,0,2.856-.9,5.58,5.58,0,0,0,3.464,1.176c.126,0,.249-.009.372-.015a8.622,8.622,0,0,1-6.759,3.025m10.28-8.33a3.848,3.848,0,0,1-7.693-.026v-.021a3.848,3.848,0,0,1,7.692.027Z" transform="translate(0 0)" fill="#fff"/>
      </g>
    </g>
  </g>
</svg>
