<?xml version="1.0" encoding="utf-8"?>
<!-- Generator: Adobe Illustrator 22.0.0, SVG Export Plug-In . SVG Version: 6.00 Build 0)  -->
<svg version="1.1" id="Capa_1" xmlns="http://www.w3.org/2000/svg" xmlns:xlink="http://www.w3.org/1999/xlink" x="0px" y="0px"
	 viewBox="0 0 1240.36 474.03" style="enable-background:new 0 0 1240.36 474.03;" xml:space="preserve">
<g>
	<path style="fill:#FFFFFF;" d="M266.86,257.27l-56.61-144.43L147.82,265.2h-20.9c-5.65,0-9.35-2.82-11.11-8.46L61.85,79.24h12.17
		c6.88,0,11.28,3.27,13.23,9.79l46.56,156.87l63.22-152.37h21.16c4.05,0,6.96,2.12,8.73,6.35l57.4,147.08l48.14-167.71h22.75
		L299.4,265.2h-20.9C272.85,265.2,268.98,262.56,266.86,257.27z"/>
	<path style="fill:#FFFFFF;" d="M384.31,79.24h21.96v185.17h-21.96V79.24z"/>
	<path style="fill:#FFFFFF;" d="M459.17,264.41V79.24h21.96v165.33h116.66v19.84H459.17z"/>
	<path style="fill:#FFFFFF;" d="M629.53,79.24h21.96v185.17h-21.96V79.24z"/>
	<path style="fill:#FFFFFF;" d="M880.3,264.41l-25.92-50.53H735.34l-25.92,50.53h-23.54l96.29-185.17h14.28
		c6.88,0,11.81,2.82,14.81,8.46l92.59,176.71H880.3z M844.06,194.04l-49.47-96.02l-49.2,96.02H844.06z"/>
	<path style="fill:#FFFFFF;" d="M1043.25,219.18L985.58,99.34l-47.35,165.07h-22.48l54.23-185.17h17.72
		c7.05,0,11.99,2.91,14.81,8.73l56.34,116.39l61.37-125.12h18.78c7.76,0,12.61,3.7,14.55,11.11l48.14,174.06h-21.69l-46.29-166.13
		l-63.75,128.56h-13.76C1050.04,226.85,1045.72,224.29,1043.25,219.18z"/>
</g>
<g>
	<path style="fill:#FFFFFF;" d="M788.37,363.37v-82.3h14.46v32.92h33.63v-32.92h14.46v82.3h-14.46v-36.09h-33.63v36.09H788.37z"/>
	<path style="fill:#FFFFFF;" d="M914.29,363.37l-6.47-22.46h-25.4l-6.58,22.46h-15.52l27.16-82.53h9.41c2.12,0,3.74,0.41,4.88,1.23
		c1.13,0.82,2.02,2.29,2.64,4.41l25.63,76.89H914.29z M904.41,329.16l-9.29-31.74l-9.29,31.74H904.41z"/>
	<path style="fill:#FFFFFF;" d="M945.92,363.37v-29.04l-25.87-53.26h10.93c3.68,0,6.27,1.8,7.76,5.41l14.58,33.39l17.4-38.8h16.46
		l-26.57,53.26v29.04H945.92z"/>
	<path style="fill:#FFFFFF;" d="M1018.22,364.78c-7.68,0-15.17-1.22-22.46-3.64v-80.07h26.57c3.76,0,7.39,0.41,10.88,1.23
		c3.49,0.82,6.86,2.22,10.11,4.17c3.25,1.96,6.09,4.37,8.52,7.23c2.43,2.86,4.37,6.47,5.82,10.82c1.45,4.35,2.17,9.23,2.17,14.64
		c0,14.81-3.88,26.12-11.64,33.92C1040.44,360.88,1030.45,364.78,1018.22,364.78z M1018.81,351.14c8.39,0,14.81-2.65,19.28-7.94
		c4.47-5.29,6.7-12.95,6.7-22.99c0-8.15-1.96-14.5-5.88-19.05c-3.92-4.54-9.33-6.82-16.22-6.82h-12.46v55.85
		C1013.2,350.83,1016.06,351.14,1018.81,351.14z"/>
	<path style="fill:#FFFFFF;" d="M1117.57,363.37l-6.47-22.46h-25.4l-6.58,22.46h-15.52l27.16-82.53h9.41c2.12,0,3.74,0.41,4.88,1.23
		c1.13,0.82,2.02,2.29,2.64,4.41l25.63,76.89H1117.57z M1107.69,329.16l-9.29-31.74l-9.29,31.74H1107.69z"/>
	<path style="fill:#FFFFFF;" d="M1166.94,339.62c-3.45,0-6.7-0.47-9.76-1.41v25.16h-14.46v-82.3h28.22c5.56,0,10.42,0.75,14.58,2.23
		c4.15,1.49,7.41,3.53,9.76,6.11c2.35,2.59,4.07,5.45,5.17,8.58c1.1,3.14,1.65,6.54,1.65,10.23c0,5.8-1.23,11.07-3.7,15.81
		c-2.47,4.74-6.25,8.45-11.35,11.11l17.64,28.22h-15.75L1174,339.15C1171.02,339.47,1168.67,339.62,1166.94,339.62z M1166.83,326.57
		c3.84,0,7.13-0.57,9.88-1.7c2.74-1.14,4.78-2.66,6.11-4.58c1.33-1.92,2.27-3.84,2.82-5.76c0.55-1.92,0.82-3.98,0.82-6.17
		c0-3.76-1.12-7.03-3.35-9.82c-2.23-2.78-6.05-4.17-11.46-4.17h-14.46v30.8C1160.32,326.1,1163.53,326.57,1166.83,326.57z"/>
</g>
<g>
</g>
<g>
</g>
<g>
</g>
<g>
</g>
<g>
</g>
<g>
</g>
<g>
</g>
<g>
</g>
<g>
</g>
<g>
</g>
<g>
</g>
<g>
</g>
<g>
</g>
<g>
</g>
<g>
</g>
</svg>
