<svg id="Group_20" data-name="Group 20" xmlns="http://www.w3.org/2000/svg" xmlns:xlink="http://www.w3.org/1999/xlink" width="376" height="76.119" viewBox="0 0 376 76.119">
  <defs>
    <clipPath id="clip-path">
      <rect id="Rectangle_13" data-name="Rectangle 13" width="376" height="76.119" fill="#2e2e2e"/>
    </clipPath>
  </defs>
  <g id="Group_19" data-name="Group 19" clip-path="url(#clip-path)">
    <path id="Path_448" data-name="Path 448" d="M129.575,38.417V10.1h5.5V38.069c0,10.508,5.635,16.421,14.89,16.421,8.977,0,14.682-5.428,14.682-16.073V10.1h5.5V38c0,14.2-8.142,21.569-20.319,21.569-12.038,0-20.248-7.374-20.248-21.151" transform="translate(44.603 3.476)" fill="#2e2e2e"/>
    <path id="Path_449" data-name="Path 449" d="M177.394,51.886,180.8,47.85c5.078,4.592,9.95,6.888,16.7,6.888,6.54,0,10.855-3.479,10.855-8.279v-.141c0-4.522-2.434-7.1-12.664-9.252-11.2-2.437-16.353-6.054-16.353-14.057v-.14c0-7.653,6.751-13.29,16-13.29a25.422,25.422,0,0,1,17.119,5.984l-3.2,4.246a21.386,21.386,0,0,0-14.055-5.29c-6.333,0-10.368,3.479-10.368,7.862v.138c0,4.593,2.5,7.167,13.22,9.465,10.853,2.366,15.865,6.331,15.865,13.776v.14c0,8.352-6.958,13.778-16.629,13.778a28.494,28.494,0,0,1-19.9-7.794" transform="translate(61.064 3.297)" fill="#2e2e2e"/>
    <rect id="Rectangle_12" data-name="Rectangle 12" width="5.497" height="48.708" transform="translate(300.581 13.571)" fill="#2e2e2e"/>
    <path id="Path_450" data-name="Path 450" d="M247.052,34.8v-.14c0-13.776,10.3-25.188,24.632-25.188,8.837,0,14.124,3.132,19,7.724l-3.76,4.035c-4.1-3.9-8.7-6.679-15.307-6.679-10.785,0-18.857,8.768-18.857,19.971v.137c0,11.273,8.142,20.11,18.857,20.11,6.681,0,11.064-2.574,15.726-7.026l3.617,3.549c-5.08,5.148-10.646,8.559-19.483,8.559-14.055,0-24.422-11.064-24.422-25.051" transform="translate(85.042 3.261)" fill="#2e2e2e"/>
    <path id="Path_451" data-name="Path 451" d="M41.773,26.6a2.2,2.2,0,0,0-2.219,2.276V28.9a2.232,2.232,0,0,0,2.213,2.324,2.2,2.2,0,0,0,2.219-2.276v-.022A2.234,2.234,0,0,0,41.773,26.6" transform="translate(13.615 9.157)" fill="#2e2e2e"/>
    <path id="Path_452" data-name="Path 452" d="M38.059,0a38.06,38.06,0,1,0,38.06,38.06A38.06,38.06,0,0,0,38.059,0m7.107,51.337a13.48,13.48,0,0,1-11.511-6.1c-.929,3.668-4.179,6.178-8.987,6.178a12.494,12.494,0,0,1-10.041-4.451l3.9-3.715a7.853,7.853,0,0,0,6.216,3.09c2.133,0,3.642-1.214,3.642-3.127v-.074c0-2.1-1.875-3.273-5.04-3.273H20.99l-.883-3.605L26.25,30.08H16.133V25.225h17.4v4.268l-6.511,6.216a9.825,9.825,0,0,1,4.589,1.89A13.317,13.317,0,0,1,45.4,24.7a13.591,13.591,0,0,1,10.646,4.912c-.195-.013-.388-.031-.59-.032a8.891,8.891,0,0,0-5.6,1.86,7.586,7.586,0,0,0-4.56-1.516A7.7,7.7,0,0,0,37.523,37.9v.073a7.823,7.823,0,0,0,7.749,8.141,7.565,7.565,0,0,0,4.535-1.424,8.862,8.862,0,0,0,5.5,1.867c.2,0,.4-.015.591-.024a13.693,13.693,0,0,1-10.735,4.8m16.327-13.23a6.112,6.112,0,0,1-12.218-.042v-.034a6.111,6.111,0,0,1,12.216.043Z" transform="translate(0 0)" fill="#2e2e2e"/>
  </g>
</svg>
