<?xml version="1.0" encoding="utf-8"?>
<!-- Generator: Adobe Illustrator 23.0.4, SVG Export Plug-In . SVG Version: 6.00 Build 0)  -->
<svg version="1.1" id="Layer_1" xmlns="http://www.w3.org/2000/svg" xmlns:xlink="http://www.w3.org/1999/xlink" x="0px" y="0px"
	 viewBox="0 0 1055.7 121.3" style="enable-background:new 0 0 1055.7 121.3;" xml:space="preserve">
<style type="text/css">
	.st0{fill:#FFFFFF;}
	.st1{fill:#D5D7DB;}
	.st2{opacity:0.5;}
	.st3{opacity:0.5;fill:#FFFFFF;enable-background:new    ;}
	.st4{clip-path:url(#SVGID_4_);fill:#FFFFFF;}
	.st5{clip-path:url(#SVGID_6_);fill:#FFFFFF;}
</style>
<g>
	<path class="st0" d="M201,24.7h15.8v56.9h35.4V96H201L201,24.7L201,24.7z"/>
	<path class="st0" d="M297.2,24.7h15.3V96h-15.8V24.7H297.2L297.2,24.7z"/>
	<path class="st0" d="M356.8,24.7h17.1l18.4,49.9l18.4-49.9h17.1l-28.9,71.8h-14L356.8,24.7z"/>
	<path class="st0" d="M471.8,24.7h53.8v14h-38.1v14.4h33.7v14h-33.7V82H526v14h-54.3L471.8,24.7L471.8,24.7z"/>
	<g>
		<path class="st1" d="M590.9,24.9h26.7c16.1,0,26.7,8.6,26.7,22.6v0.2c0,15.4-12.8,23.3-28,23.3h-17.3v25.2h-8V24.9z M616.6,63.7
			c11.8,0,19.6-6.3,19.6-15.7v-0.2c0-10.2-7.6-15.5-19.1-15.5h-18v31.4H616.6z"/>
		<path class="st1" d="M696.5,24.4h7.5l32.5,71.8h-8.7l-8.4-18.8h-38.8l-8.5,18.8H664L696.5,24.4z M716.4,70.2l-16.2-36.4
			l-16.3,36.4H716.4z"/>
		<path class="st1" d="M768.9,24.9h7.5l44.9,57.1V24.9h7.8v71.3h-6.4l-46-58.5v58.5h-7.8V24.9z"/>
		<path class="st1" d="M867.7,24.9h51.5v7.3h-43.5v24.3h38.9v7.3h-38.9v25h44v7.3h-52V24.9z"/>
		<path class="st1" d="M954.3,24.9h8v63.9h40.1v7.4h-48.2V24.9z"/>
	</g>
</g>
<g>
	<g>
		<g>
			<path class="st0" d="M127.2,38.2c0,0-0.5,8-3.3,10.1c-2.6,2-53.5,35.3-62.6,37.2c0,0,8.5,14.1,11.3,17.8
				c2.8,3.6,4.6,5.1,10.6,4.5c6-0.5,35.7-14.4,40.5-19.5s4.1-7.7,4.1-7.7S130.5,47.2,127.2,38.2z"/>
			<g class="st2">
				<g>
					<path id="SVGID_1_" class="st3" d="M126.8,38.2c0,0,0.9,6.2-1.8,8.3c-2.6,2-17.6,14-58.1,37.3c0,0,3.9,16.3,6.7,19.9
						c2.8,3.6,4.6,5.1,10.6,4.5c6-0.5,35.4-15.7,40.2-20.7c4.8-5.1,3.1-8.8,3.1-8.8S130.1,47.2,126.8,38.2z"/>
				</g>
				<g>
					<g>
						<defs>
							<path id="SVGID_2_" d="M126.8,38.2c0,0,0.9,6.2-1.8,8.3c-2.6,2-17.6,14-58.1,37.3c0,0,3.9,16.3,6.7,19.9
								c2.8,3.6,4.6,5.1,10.6,4.5c6-0.5,35.4-15.7,40.2-20.7c4.8-5.1,3.1-8.8,3.1-8.8S130.1,47.2,126.8,38.2z"/>
						</defs>
						<clipPath id="SVGID_4_">
							<use xlink:href="#SVGID_2_"  style="overflow:visible;"/>
						</clipPath>
						<path class="st4" d="M123.6,88.3c0,0-4,1.1-6.7-0.8c-8.4-5.7-26.4-17.8-32.6-31.9c0,0-39.7,11.1-41.5,14.9s-2,7.6,1.3,12.2
							s29.9,21.6,36.5,23.2c6.6,1.7,8.6,0.4,8.6,0.4S117.4,94.8,123.6,88.3z"/>
					</g>
				</g>
			</g>
		</g>
		<path class="st1" d="M123.7,88.3c0,0-5.6,1.6-8.8,0.5c-3-1.1-27.5-10.4-53.9-28.3c0,0-18.9,12.3-20.6,16.2
			c-1.7,3.9-1.9,5.9,1.5,10.4c3.5,4.4,29.8,21.2,36.4,22.5c0.9,0.2,3.2,0.3,4.9-0.1C94,107,118.6,94.1,123.7,88.3z"/>
	</g>
	<g>
		<g>
			<path class="st0" d="M39.7,83.3c0,0,0.9-5.3,3.6-7.4c2.6-2,16.9-15.5,57.4-38.8c0,0-3.9-16.3-6.7-19.9c-2.8-3.6-4.6-5.1-10.6-4.5
				c-6,0.5-35.4,15.7-40.2,20.7c-4.8,5.1-4.5,7.5-4.5,7.5S36.4,74.2,39.7,83.3z"/>
			<g class="st2">
				<g>
					<path id="SVGID_3_" class="st3" d="M39.7,83.3c0,0,0.5-4.9,3.2-7c2.6-2,17.3-15.9,57.8-39.2c0,0-3.9-16.3-6.7-19.9
						c-2.8-3.6-4.6-5.1-10.6-4.5c-6,0.5-35.4,15.7-40.2,20.7c-4.8,5.1-4.5,7.5-4.5,7.5S36.4,74.2,39.7,83.3z"/>
				</g>
				<g>
					<g>
						<defs>
							<path id="SVGID_5_" d="M39.7,83.3c0,0,0.5-4.9,3.2-7c2.6-2,17.3-15.9,57.8-39.2c0,0-3.9-16.3-6.7-19.9
								c-2.8-3.6-4.6-5.1-10.6-4.5c-6,0.5-35.4,15.7-40.2,20.7c-4.8,5.1-4.5,7.5-4.5,7.5S36.4,74.2,39.7,83.3z"/>
						</defs>
						<clipPath id="SVGID_6_">
							<use xlink:href="#SVGID_5_"  style="overflow:visible;"/>
						</clipPath>
						<path class="st5" d="M44,32.6c0,0,4-1.1,6.7,0.8c8.4,5.7,26.4,17.8,32.6,31.9c0,0,39.7-11.1,41.5-14.9s2-7.6-1.3-12.1
							c-3.3-4.6-30-21.6-36.5-23.2c-6.6-1.7-8.6-0.4-8.6-0.4S50.3,26.1,44,32.6z"/>
					</g>
				</g>
			</g>
		</g>
		<path class="st1" d="M44,32.6c0,0,4.7-1.6,7.8-0.5c3,1.1,26.1,11.1,52.5,29.1c0,0,20.6-11.3,22.3-15.2s1.7-7.7-1.8-12.1
			S94,13.6,87.4,12.2s-8.6,0-8.6,0S50,25.8,44,32.6z"/>
	</g>
</g>
</svg>
